<?xml version="1.0" encoding="utf-8"?>
<!-- Generator: Adobe Illustrator 14.0.0, SVG Export Plug-In . SVG Version: 6.00 Build 43363)  -->
<!DOCTYPE svg PUBLIC "-//W3C//DTD SVG 1.1//EN" "http://www.w3.org/Graphics/SVG/1.1/DTD/svg11.dtd">
<svg version="1.1" id="Layer_1" xmlns="http://www.w3.org/2000/svg" xmlns:xlink="http://www.w3.org/1999/xlink" x="0px" y="0px"
	 width="192.756px" height="192.756px" viewBox="0 0 192.756 192.756" enable-background="new 0 0 192.756 192.756"
	 xml:space="preserve">
<g>
	
		<path fill-rule="evenodd" clip-rule="evenodd" fill="#FFFB00" stroke="#000000" stroke-width="0.4269" stroke-linejoin="round" stroke-miterlimit="2.6131" d="
		M142.963,8.678l16.616,17.517c0,0-8.365,11.137-8.831,33.293c-0.349,13.457,4.067,32.829,4.067,32.829s1.743-6.728,8.018-6.96
		c8.017-0.464,8.714,4.524,8.714,4.524l7.204,19.837c0,0,0.466,3.133-1.742,4.873c-1.976,1.623-3.835,1.738-3.835,1.738
		s2.789,16.473-13.827,30.625c-10.69,9.049-26.841,15.777-40.437,20.418c-13.826,4.871-22.542,16.705-22.542,16.705
		s-8.714-11.834-22.542-16.705c-13.595-4.641-29.63-11.369-40.32-20.418c-16.732-14.152-13.943-30.625-13.943-30.625
		s-1.859-0.115-3.835-1.738c-2.091-1.74-1.743-4.873-1.743-4.873l7.205-19.837c0,0,0.814-4.989,8.714-4.524
		c6.275,0.232,8.018,6.96,8.018,6.96s4.416-19.373,4.066-32.829c-0.464-22.157-8.831-33.293-8.831-33.293L49.774,8.678H142.963
		L142.963,8.678z"/>
	
		<path fill-rule="evenodd" clip-rule="evenodd" fill="#0059AD" stroke="#000000" stroke-width="0.4269" stroke-linejoin="round" stroke-miterlimit="2.6131" d="
		M139.71,13.318l13.943,14.732c0,0-7.437,13.689-7.901,35.846c-0.232,13.457,14.292,43.037-3.369,58.35
		c-10.574,9.166-15.454,11.949-29.05,16.59c-13.827,4.871-16.964,10.324-16.964,10.324s-2.905-5.453-16.848-10.324
		c-13.595-4.641-18.359-7.424-28.932-16.59c-17.662-15.312-3.138-44.893-3.486-58.35c-0.465-22.157-7.901-35.846-7.901-35.846
		l13.943-14.732H139.71L139.71,13.318z"/>
	
		<path fill-rule="evenodd" clip-rule="evenodd" fill="#FFFB00" stroke="#000000" stroke-width="0.4269" stroke-linejoin="round" stroke-miterlimit="2.6131" d="
		M147.379,75.729c3.137,14.849,8.481,34.802-4.996,46.517c-10.574,9.166-15.454,11.949-29.05,16.59
		c-13.827,4.871-16.964,10.324-16.964,10.324c1.86-8.236-0.697-19.025-2.905-24.594c-2.091-5.451-34.277-100.228-34.277-100.228
		L147.379,75.729L147.379,75.729z"/>
	
		<path fill-rule="evenodd" clip-rule="evenodd" fill="#BBBEC0" stroke="#000000" stroke-width="0.4269" stroke-linejoin="round" stroke-miterlimit="2.6131" d="
		M96.369,149.16c0,0-0.232-14.732-3.95-20.068c-3.602-5.221-8.947-11.021-14.176-9.164c-4.532,1.508-3.718,6.844-3.718,6.844
		L59.187,24.339c0,0,32.187,94.776,34.277,100.228C95.672,130.135,98.229,140.924,96.369,149.16L96.369,149.16z"/>
	
		<polygon fill-rule="evenodd" clip-rule="evenodd" fill="#FFFFFF" stroke="#000000" stroke-width="0.4269" stroke-linejoin="round" stroke-miterlimit="2.6131" points="
		100.901,120.971 60.465,25.731 138.315,85.357 114.844,95.102 100.901,120.971 	"/>
	
		<polygon fill-rule="evenodd" clip-rule="evenodd" fill="#BBBEC0" stroke="#000000" stroke-width="0.4269" stroke-linejoin="round" stroke-miterlimit="2.6131" points="
		60.465,25.731 106.13,84.778 100.901,120.971 60.465,25.731 	"/>
	
		<path fill-rule="evenodd" clip-rule="evenodd" fill="#BBBEC0" stroke="#000000" stroke-width="0.4269" stroke-linejoin="round" stroke-miterlimit="2.6131" d="
		M147.379,75.729l-88.192-51.39l76.456,26.101c0,0-4.88-1.856-4.647,2.9C131.228,62.041,147.379,75.729,147.379,75.729
		L147.379,75.729z"/>
	
		<polygon fill-rule="evenodd" clip-rule="evenodd" fill="#939598" stroke="#000000" stroke-width="0.4269" stroke-linejoin="round" stroke-miterlimit="2.6131" points="
		138.315,85.357 106.13,84.778 100.901,120.971 114.844,95.102 138.315,85.357 	"/>
	
		<polygon fill-rule="evenodd" clip-rule="evenodd" fill="#FFFFFF" stroke="#000000" stroke-width="0.4269" stroke-linejoin="round" stroke-miterlimit="2.6131" points="
		50.704,90.81 54.655,90.81 55.816,87.098 56.979,90.81 60.93,90.81 57.792,93.13 58.954,96.842 55.816,94.522 52.679,96.842 
		53.841,93.13 50.704,90.81 	"/>
	
		<polygon fill-rule="evenodd" clip-rule="evenodd" fill="#FFFFFF" stroke="#000000" stroke-width="0.4269" stroke-linejoin="round" stroke-miterlimit="2.6131" points="
		50.704,79.441 54.655,79.441 55.816,75.729 56.979,79.441 60.93,79.441 57.792,81.761 58.954,85.474 55.816,83.153 52.679,85.474 
		53.841,81.761 50.704,79.441 	"/>
	
		<polygon fill-rule="evenodd" clip-rule="evenodd" fill="#FFFFFF" stroke="#000000" stroke-width="0.4269" stroke-linejoin="round" stroke-miterlimit="2.6131" points="
		50.704,68.073 54.655,68.073 55.816,64.36 56.979,68.073 60.93,68.073 57.792,70.393 58.954,74.104 55.816,71.785 52.679,74.104 
		53.841,70.393 50.704,68.073 	"/>
	
		<polygon fill-rule="evenodd" clip-rule="evenodd" fill="#FFFFFF" stroke="#000000" stroke-width="0.4269" stroke-linejoin="round" stroke-miterlimit="2.6131" points="
		50.704,56.705 54.655,56.705 55.816,52.992 56.979,56.705 60.93,56.705 57.792,59.024 58.954,62.737 55.816,60.417 52.679,62.737 
		53.841,59.024 50.704,56.705 	"/>
	
		<polygon fill-rule="evenodd" clip-rule="evenodd" fill="#FFFFFF" stroke="#000000" stroke-width="0.4269" stroke-linejoin="round" stroke-miterlimit="2.6131" points="
		50.704,45.335 54.655,45.335 55.816,41.74 56.979,45.335 60.93,45.335 57.792,47.656 58.954,51.368 55.816,49.048 52.679,51.368 
		53.841,47.656 50.704,45.335 	"/>
	
		<path fill="none" stroke="#FFFB00" stroke-width="0.4269" stroke-linecap="round" stroke-linejoin="round" stroke-miterlimit="2.6131" d="
		M113.914,17.031v21.577 M105.665,27.819h16.615 M108.686,26.079l10.574,3.48 M108.221,33.503l11.388-11.369 M108.221,22.135
		l11.388,11.369 M115.657,33.04l-3.485-10.557 M112.172,33.04l3.485-10.557 M119.26,26.079l-10.574,3.48"/>
	
		<path fill-rule="evenodd" clip-rule="evenodd" fill="#FFFFFF" stroke="#000000" stroke-width="0.4269" stroke-linejoin="round" stroke-miterlimit="2.6131" d="
		M28.859,94.522l-2.556,3.132c0,0,2.091,1.623,3.137,0.58C30.486,97.189,28.859,94.522,28.859,94.522L28.859,94.522z"/>
	
		<path fill-rule="evenodd" clip-rule="evenodd" fill="#FFFFFF" stroke="#000000" stroke-width="0.4269" stroke-linejoin="round" stroke-miterlimit="2.6131" d="
		M21.307,95.566c0,0,0,2.899,2.905,4.292c2.905,1.277,5.229,1.045,5.229,1.045s-2.905,3.133-4.997,5.221
		c-2.091,2.088-4.531,7.191-4.531,7.191s-1.743,0-2.904-1.623c-1.046-1.625,0-5.916,1.045-8.469
		C19.215,100.67,21.307,95.566,21.307,95.566L21.307,95.566z"/>
	
		<path fill-rule="evenodd" clip-rule="evenodd" fill="#FFFFFF" stroke="#000000" stroke-width="0.4269" stroke-linejoin="round" stroke-miterlimit="2.6131" d="
		M164.343,94.522l2.673,3.132c0,0-2.092,1.623-3.137,0.58C162.833,97.189,164.343,94.522,164.343,94.522L164.343,94.522z"/>
	
		<path fill-rule="evenodd" clip-rule="evenodd" fill="#FFFFFF" stroke="#000000" stroke-width="0.4269" stroke-linejoin="round" stroke-miterlimit="2.6131" d="
		M172.012,95.566c0,0,0,2.899-2.904,4.292c-2.904,1.277-5.229,1.045-5.229,1.045s2.904,3.133,4.996,5.221s4.415,7.191,4.415,7.191
		s1.859,0,2.905-1.623c1.046-1.625,0-5.916-1.046-8.469S172.012,95.566,172.012,95.566L172.012,95.566z"/>
	
		<path fill-rule="evenodd" clip-rule="evenodd" fill="#FFFFFF" stroke="#000000" stroke-width="0.4269" stroke-linejoin="round" stroke-miterlimit="2.6131" d="
		M97.183,155.193c0,0,9.063-8.121,15.802-10.789c12.085-4.756,18.708-7.076,28.701-14.037c9.992-6.844,14.524-18.445,14.989-24.244
		c0.58-5.801,1.626-12.646,2.904-14.965c1.395-2.437,4.066-5.568,8.25-2.668c4.183,2.9,1.046,7.888,1.046,7.888l-4.532-5.22
		c0,0-3.137,2.088-3.137,7.307c0,5.338,3.95,9.049,6.042,11.137c2.092,2.09,4.184,1.74,3.486,11.602
		c-0.814,11.6-11.388,21.926-19.057,27.957c-7.553,6.033-28.7,13.225-37.183,16.82c-8.365,3.713-17.777,12.992-17.777,12.992
		s-9.528-9.279-18.01-12.992c-8.367-3.596-29.514-10.787-37.183-16.82c-7.553-6.031-18.126-16.357-18.94-27.957
		c-0.697-9.861,1.278-9.512,3.486-11.602c2.091-2.088,6.042-5.799,6.042-11.137c0-5.219-3.253-7.307-3.253-7.307l-4.416,5.22
		c0,0-3.136-4.988,1.046-7.888c4.183-2.9,6.855,0.231,8.134,2.668c1.394,2.32,2.44,9.165,2.905,14.965
		c0.581,5.799,4.997,17.4,15.105,24.244c9.993,6.961,16.616,9.281,28.7,14.037c6.739,2.668,15.803,10.789,15.803,10.789l0.464,0.58
		L97.183,155.193L97.183,155.193z"/>
	<path fill-rule="evenodd" clip-rule="evenodd" fill="#FFFFFF" d="M78.359,119.811c1.394-0.463,3.137-0.348,4.183,0.117
		L59.187,24.339L78.359,119.811L78.359,119.811z"/>
	<path fill-rule="evenodd" clip-rule="evenodd" fill="#FFFFFF" d="M131.46,56.008c0,0-31.257-12.761-72.273-31.669L131.228,51.6
		C130.763,52.76,130.879,54.268,131.46,56.008L131.46,56.008z"/>
	
		<path fill-rule="evenodd" clip-rule="evenodd" fill="#939598" stroke="#000000" stroke-width="0.4269" stroke-linejoin="round" stroke-miterlimit="2.6131" d="
		M74.524,126.771c0,0-0.813-5.336,3.718-6.844c1.742-0.58,3.37-0.465,5.112,0.348l1.743,11.947c0,0-5.461-0.695-8.482-2.551
		C74.641,128.279,74.524,126.771,74.524,126.771L74.524,126.771z"/>
	
		<path fill-rule="evenodd" clip-rule="evenodd" fill="#939598" stroke="#000000" stroke-width="0.4269" stroke-linejoin="round" stroke-miterlimit="2.6131" d="
		M135.643,50.44c0,0-4.88-1.856-4.647,2.9c0,0.928,0.116,1.74,0.465,2.668l11.387,5.336c0,0-1.278-6.612-4.764-9.512
		C136.34,50.672,135.643,50.44,135.643,50.44L135.643,50.44z"/>
	<path fill-rule="evenodd" clip-rule="evenodd" d="M28.627,123.523l0.93,1.855l1.976-2.203l0,0L28.627,123.523L28.627,123.523z
		 M27.465,126.191l0.232-0.115l0.464,0.811l1.278-1.275l-1.046-1.973l-1.859,0.232L27,124.799l-0.232,0.117l-1.046-1.857
		l0.232-0.115l0.465,0.695l6.855-1.043l0.232,0.23l-4.764,5.221l0.349,0.812l-0.232,0.115L27.465,126.191L27.465,126.191z"/>
	<polygon fill-rule="evenodd" clip-rule="evenodd" points="30.834,131.295 28.976,128.627 29.208,128.512 29.673,129.322 
		34.785,125.727 34.205,124.916 34.437,124.799 36.296,127.467 36.18,127.584 35.599,126.887 30.486,130.367 31.067,131.18 
		30.834,131.295 	"/>
	<path fill-rule="evenodd" clip-rule="evenodd" d="M35.134,130.715l0.349,0.35c0.349,0.463,0.697,0.695,1.046,0.695
		s0.581-0.117,1.046-0.465c0.349-0.348,0.581-0.695,0.581-0.928c0-0.348-0.232-0.58-0.581-1.045l-0.465-0.463L35.134,130.715
		L35.134,130.715z M33.042,133.963l-2.208-2.436l0.117-0.115l0.697,0.695l4.532-4.293l-0.581-0.695l0.116-0.115l2.324,2.436
		c0.581,0.58,0.93,1.16,0.93,1.508c0.116,0.465,0,0.928-0.465,1.275c-0.349,0.35-0.697,0.465-1.045,0.35
		c-0.465-0.117-0.93-0.35-1.511-0.812v0.115c0.349,0.58,0.465,1.045,0.465,1.508c-0.116,0.35-0.348,0.812-0.813,1.277l-0.232,0.232
		c-0.233,0.23-0.349,0.463-0.349,0.578c-0.116,0.117,0,0.35,0.232,0.465c0,0.115,0,0.115,0.117,0.115c0,0,0,0.117,0.116,0.117
		l-0.232,0.23c-0.116-0.115-0.232-0.23-0.232-0.23c-0.116,0-0.116-0.117-0.232-0.117c-0.465-0.463-0.697-0.928-0.697-1.275
		s0.232-0.812,0.582-1.16l0.464-0.463c0.349-0.465,0.581-0.812,0.581-1.045c-0.116-0.348-0.348-0.695-0.813-1.277l-2.324,2.205
		l0.697,0.697L33.042,133.963L33.042,133.963z"/>
	<path fill-rule="evenodd" clip-rule="evenodd" d="M40.711,136.398l-1.859,2.553l0.814,0.58l-0.117,0.232l-2.672-1.973l0.116-0.23
		l0.813,0.58l3.602-4.988l-0.697-0.58l0.116-0.232l4.416,3.248l-1.162,1.623l-0.117-0.115c0.233-0.58,0.465-1.045,0.349-1.393
		c0-0.348-0.349-0.695-0.813-1.043l-1.045-0.812l-1.627,2.32l0.116,0.115c0.349,0.232,0.697,0.348,0.93,0.348
		c0.348,0,0.581-0.232,0.93-0.58l0.116,0.117l-1.51,2.203l-0.232-0.115c0.232-0.348,0.349-0.695,0.349-1.045
		C41.409,136.98,41.176,136.748,40.711,136.398L40.711,136.398L40.711,136.398z"/>
	<path fill-rule="evenodd" clip-rule="evenodd" d="M44.197,139.879c-0.465,0.812-0.697,1.393-0.697,1.857
		c0,0.348,0.349,0.811,0.813,1.16c0.465,0.232,0.93,0.348,1.394,0.115c0.349-0.115,0.814-0.58,1.278-1.275l0.93-1.393
		c0.465-0.812,0.697-1.393,0.697-1.855c0-0.465-0.232-0.812-0.813-1.16c-0.465-0.232-0.93-0.348-1.278-0.117
		c-0.465,0.117-0.93,0.58-1.395,1.277L44.197,139.879L44.197,139.879z M43.5,138.488c0.581-0.928,1.278-1.393,2.092-1.74
		c0.813-0.232,1.627-0.117,2.439,0.463c0.698,0.465,1.163,1.16,1.279,1.973c0.116,0.928-0.116,1.74-0.697,2.553
		c-0.465,0.928-1.162,1.393-2.091,1.74c-0.814,0.23-1.627,0.115-2.324-0.465c-0.813-0.465-1.162-1.16-1.394-1.973
		C42.687,140.111,42.919,139.299,43.5,138.488L43.5,138.488z"/>
	<path fill-rule="evenodd" clip-rule="evenodd" d="M50.937,142.664l0.464,0.232c0.582,0.348,0.93,0.348,1.278,0.348
		c0.232-0.115,0.582-0.348,0.814-0.697c0.232-0.463,0.348-0.811,0.348-1.16c-0.116-0.23-0.348-0.463-0.813-0.695l-0.697-0.463
		L50.937,142.664L50.937,142.664z M50.007,146.377l-2.905-1.625l0.117-0.232l0.929,0.465l3.137-5.336l-0.93-0.58l0.116-0.117
		l2.905,1.625c0.814,0.463,1.279,0.811,1.395,1.275c0.232,0.348,0.232,0.812,0,1.277c-0.232,0.348-0.581,0.578-1.045,0.695
		c-0.349,0-0.93-0.117-1.627-0.348v0.115c0.581,0.348,0.813,0.812,0.93,1.275c0.116,0.35,0,0.812-0.349,1.393l-0.232,0.348
		c-0.116,0.348-0.232,0.465-0.232,0.697c0.117,0.115,0.232,0.232,0.465,0.348c0,0,0,0.115,0.117,0.115h0.116L52.796,148
		c-0.117,0-0.233,0-0.349-0.115h-0.116c-0.581-0.348-0.93-0.697-1.046-1.045c-0.232-0.348-0.116-0.812,0.116-1.275l0.349-0.58
		c0.232-0.465,0.349-0.928,0.232-1.16c-0.116-0.348-0.465-0.58-1.162-1.045l-1.626,2.9l0.93,0.465L50.007,146.377L50.007,146.377z"
		/>
	<path fill-rule="evenodd" clip-rule="evenodd" d="M57.908,150.785h-0.232l-0.116-0.697c-0.349,0.115-0.581,0.115-0.93,0
		c-0.232,0-0.581-0.115-0.929-0.348c-0.697-0.348-1.162-1.043-1.395-1.855c-0.116-0.93,0-1.74,0.465-2.668
		c0.581-0.928,1.162-1.51,1.975-1.74c0.93-0.348,1.627-0.232,2.44,0.115c0.349,0.232,0.581,0.348,0.697,0.58
		c0.232,0.232,0.349,0.465,0.464,0.695l0.582-0.115h0.116l-0.929,1.74l-0.232-0.115c0.232-0.58,0.232-1.045,0.116-1.51
		c-0.232-0.463-0.465-0.811-0.93-1.043c-0.582-0.232-0.93-0.348-1.395-0.117c-0.349,0.232-0.813,0.697-1.278,1.51l-0.697,1.391
		c-0.465,0.812-0.697,1.393-0.581,1.857c0,0.463,0.232,0.811,0.813,1.043c0.465,0.348,0.929,0.348,1.394,0.232
		c0.465-0.115,0.93-0.348,1.395-0.928l0.232,0.232L57.908,150.785L57.908,150.785z"/>
	<path fill-rule="evenodd" clip-rule="evenodd" d="M61.975,148.928l-1.51,2.785l1.162,0.58c0.581,0.23,1.046,0.348,1.395,0.23
		c0.465-0.115,0.813-0.463,1.278-1.043l0.232,0.115l-1.045,1.857l-5.113-2.553l0.116-0.232l0.814,0.465l2.905-5.568l-0.929-0.465
		l0.116-0.232l4.88,2.553l-0.697,1.625l-0.232-0.117c0.116-0.58,0.116-1.043,0-1.391c-0.116-0.232-0.465-0.582-0.93-0.812
		l-1.045-0.58l-1.395,2.553l0.116,0.115c0.464,0.232,0.813,0.232,1.046,0.232c0.349-0.117,0.581-0.348,0.813-0.697l0.232,0.117
		l-1.279,2.32h-0.231c0.231-0.465,0.231-0.812,0.231-1.16C62.789,149.393,62.44,149.16,61.975,148.928L61.975,148.928
		L61.975,148.928z"/>
	<path fill-rule="evenodd" clip-rule="evenodd" d="M71.852,153.568l0.465,0.232c0.581,0.232,0.929,0.232,1.278,0.232
		c0.232-0.117,0.581-0.35,0.813-0.812c0.233-0.465,0.233-0.812,0.117-1.045c0-0.348-0.349-0.58-0.813-0.811l-0.581-0.35
		L71.852,153.568L71.852,153.568z M71.155,157.281l-3.021-1.393l0.117-0.232l0.929,0.465l2.673-5.686l-0.814-0.348l0.117-0.232
		l3.021,1.393c0.697,0.465,1.278,0.812,1.51,1.16c0.233,0.465,0.233,0.812,0,1.393c-0.232,0.348-0.581,0.58-0.93,0.695
		c-0.465,0-0.929,0-1.626-0.232l-0.116,0.117c0.581,0.348,0.93,0.812,1.046,1.16c0.116,0.463,0,0.928-0.232,1.508l-0.232,0.348
		c-0.116,0.348-0.116,0.465-0.116,0.695c0,0.117,0.116,0.232,0.349,0.35c0.116,0,0.116,0,0.232,0c0,0.115,0,0.115,0.116,0.115
		l-0.116,0.232c-0.116,0-0.232-0.117-0.349-0.117s-0.116,0-0.232,0c-0.581-0.348-0.93-0.695-1.046-0.928
		c-0.116-0.348-0.116-0.811,0.116-1.393l0.233-0.578c0.232-0.465,0.232-0.93,0.116-1.162c-0.116-0.23-0.465-0.578-1.162-0.928
		l-1.395,3.018l0.93,0.348L71.155,157.281L71.155,157.281z"/>
	<path fill-rule="evenodd" clip-rule="evenodd" d="M77.662,156.584l-1.278,2.785l1.162,0.58c0.581,0.23,1.045,0.23,1.394,0.115
		c0.465-0.115,0.813-0.463,1.162-1.16l0.232,0.117l-0.93,1.971l-5.229-2.32l0.116-0.23l0.93,0.463l2.557-5.684l-0.929-0.465
		l0.115-0.232l4.997,2.32l-0.697,1.625l-0.232-0.117c0.116-0.578,0.116-1.043,0-1.275c-0.116-0.348-0.465-0.58-0.93-0.812
		l-1.162-0.58l-1.162,2.668h0.116c0.465,0.232,0.814,0.35,1.046,0.232c0.233-0.115,0.465-0.348,0.697-0.695h0.232l-1.046,2.553
		l-0.232-0.117c0.117-0.463,0.117-0.812,0-1.043c-0.116-0.232-0.348-0.465-0.813-0.697H77.662L77.662,156.584z"/>
	<path fill-rule="evenodd" clip-rule="evenodd" d="M80.334,161.572l-0.232-0.115l0.813-1.74h0.232c-0.116,0.695,0,1.16,0.117,1.508
		c0.116,0.465,0.465,0.695,0.813,0.928c0.464,0.117,0.813,0.232,1.278,0c0.349-0.115,0.581-0.348,0.813-0.695
		c0.116-0.35,0.116-0.58,0-0.812s-0.349-0.58-0.697-0.812l-0.465-0.463c-0.581-0.348-0.813-0.812-0.929-1.16
		c-0.232-0.465-0.117-0.812,0.116-1.393c0.232-0.465,0.464-0.812,0.929-1.043c0.465-0.117,0.93-0.117,1.395,0.115
		c0.349,0.115,0.581,0.232,0.697,0.348c0.233,0.115,0.349,0.348,0.465,0.58l0.581-0.232l0.116,0.117l-0.813,1.74l-0.232-0.117
		c0.117-0.58,0.117-1.043,0-1.391c-0.232-0.465-0.464-0.697-0.813-0.812c-0.349-0.232-0.697-0.232-1.046-0.117
		c-0.349,0.117-0.581,0.348-0.697,0.58c-0.117,0.232-0.117,0.465,0,0.697c0.116,0.23,0.348,0.463,0.697,0.695l0.581,0.465
		c0.465,0.463,0.813,0.811,0.93,1.275c0.116,0.348,0.116,0.928-0.116,1.391c-0.349,0.582-0.697,1.045-1.162,1.277
		c-0.582,0.232-1.047,0.232-1.627,0c-0.232-0.115-0.465-0.232-0.697-0.348c-0.233-0.232-0.349-0.465-0.581-0.695L80.334,161.572
		L80.334,161.572z"/>
	<path fill-rule="evenodd" clip-rule="evenodd" d="M87.771,160.877l-1.046,2.9l1.046,0.463c0.697,0.232,1.162,0.232,1.51,0.117
		c0.465-0.232,0.813-0.58,1.163-1.277l0.232,0.117l-0.929,2.088l-5.229-2.088v-0.232l0.93,0.348l2.208-5.801l-0.813-0.348v-0.23
		l5.112,1.971l-0.581,1.74l-0.116-0.115c0-0.58,0-1.045-0.117-1.393c-0.231-0.232-0.581-0.465-1.045-0.695l-1.162-0.465
		l-1.045,2.668l0.116,0.115c0.464,0.117,0.813,0.117,1.046,0.117c0.231-0.117,0.464-0.348,0.697-0.812l0.232,0.115l-0.929,2.438
		h-0.233c0.116-0.465,0.116-0.812,0-1.045c-0.116-0.23-0.465-0.465-0.93-0.695H87.771L87.771,160.877z"/>
	<path fill-rule="evenodd" clip-rule="evenodd" d="M92.418,163.66l1.859,0.58l-0.117-2.898h-0.116L92.418,163.66L92.418,163.66z
		 M93.348,166.328l0.116-0.23l0.93,0.348l-0.116-1.857l-2.091-0.695L91.14,165.4l0.93,0.348v0.232l-2.092-0.58l0.116-0.232
		l0.697,0.232l4.183-5.684l0.349,0.115l0.349,6.961l0.697,0.232v0.23L93.348,166.328L93.348,166.328z"/>
	<path fill-rule="evenodd" clip-rule="evenodd" d="M99.273,162.617l0.465-0.232c0.581-0.115,0.93-0.348,1.046-0.695
		c0.117-0.232,0.117-0.582,0-1.045c-0.232-0.58-0.349-0.812-0.581-0.928s-0.697-0.115-1.162,0l-0.697,0.232L99.273,162.617
		L99.273,162.617z M101.365,165.748l-3.021,1.16l-0.115-0.348l0.929-0.232l-2.091-5.916l-0.929,0.348v-0.23l3.137-1.16
		c0.813-0.232,1.395-0.348,1.859-0.232s0.697,0.465,0.93,0.928c0.116,0.465,0.116,0.812-0.116,1.16s-0.697,0.695-1.278,1.045l0,0
		c0.697,0,1.162,0,1.511,0.232c0.349,0.23,0.697,0.578,0.93,1.158l0.116,0.465c0.116,0.232,0.232,0.463,0.349,0.58
		c0.115,0,0.349,0,0.58-0.117c0,0,0,0,0.117,0l0.116-0.115l0.116,0.232c-0.116,0.115-0.232,0.232-0.35,0.232l-0.116,0.115
		c-0.696,0.232-1.161,0.232-1.51,0.115c-0.349-0.115-0.581-0.463-0.813-1.043l-0.233-0.58c-0.231-0.465-0.464-0.812-0.696-0.928
		c-0.349-0.115-0.813,0-1.511,0.23l1.046,3.018l0.93-0.348L101.365,165.748L101.365,165.748z"/>
	<path fill-rule="evenodd" clip-rule="evenodd" d="M109.848,162.617l-0.116,0.115l-0.581-0.23c-0.116,0.23-0.349,0.463-0.58,0.695
		c-0.233,0.115-0.582,0.348-0.814,0.463c-0.813,0.348-1.626,0.232-2.439-0.115c-0.698-0.465-1.279-1.16-1.743-2.088
		c-0.349-0.928-0.349-1.74-0.116-2.668c0.349-0.812,0.813-1.393,1.743-1.74c0.231-0.115,0.581-0.115,0.812-0.232
		c0.35,0,0.581,0.117,0.813,0.117l0.232-0.465l0.116-0.117l0.813,1.857l-0.232,0.115c-0.349-0.58-0.813-0.928-1.162-1.043
		c-0.464-0.117-0.929-0.117-1.394,0.115c-0.465,0.115-0.813,0.465-0.93,0.928c-0.117,0.465,0,1.045,0.348,1.855l0.582,1.625
		c0.348,0.697,0.697,1.275,1.046,1.508c0.464,0.232,0.929,0.348,1.394,0.117c0.581-0.232,0.931-0.582,1.162-1.045
		c0.116-0.465,0.232-0.928,0.116-1.625l0.232-0.115L109.848,162.617L109.848,162.617z"/>
	<polygon fill-rule="evenodd" clip-rule="evenodd" points="113.333,161.107 110.312,162.502 110.196,162.27 111.126,161.805 
		108.57,156.121 107.756,156.584 107.64,156.352 110.545,154.961 110.661,155.193 109.731,155.656 110.894,158.209 113.449,157.164 
		112.287,154.496 111.358,154.961 111.242,154.729 114.263,153.336 114.38,153.684 113.449,154.033 116.006,159.717 
		116.819,159.252 116.936,159.484 113.914,160.877 113.914,160.645 114.844,160.18 113.566,157.396 111.01,158.557 112.287,161.342 
		113.217,160.877 113.333,161.107 	"/>
	<path fill-rule="evenodd" clip-rule="evenodd" d="M125.65,155.424l-4.996,2.438l-0.117-0.232l0.93-0.465l-2.672-5.568l-0.93,0.465
		l-0.116-0.232l2.905-1.393l0.115,0.232l-0.812,0.348l2.672,5.686l0.93-0.465c0.581-0.348,0.93-0.695,1.162-1.043
		c0.116-0.465,0-1.045-0.232-1.74l0.232-0.117L125.65,155.424L125.65,155.424z"/>
	<path fill-rule="evenodd" clip-rule="evenodd" d="M126.115,152.641l1.859-0.812l-2.092-2.088l-0.116,0.115L126.115,152.641
		L126.115,152.641z M128.671,154.033l-0.116-0.232l0.931-0.465l-1.279-1.275l-1.975,0.928l0.232,1.855l0.929-0.463l0.116,0.23
		l-1.975,0.93l-0.116-0.232l0.697-0.348L125.302,148l0.349-0.115l4.996,4.871l0.813-0.348v0.232L128.671,154.033L128.671,154.033z"
		/>
	<path fill-rule="evenodd" clip-rule="evenodd" d="M131.809,148.697l1.395,2.783l0.813-0.348c0.465-0.232,0.812-0.58,0.812-0.812
		c0.117-0.348,0-0.695-0.232-1.275c-0.231-0.465-0.58-0.812-0.929-0.928c-0.35,0-0.813,0-1.278,0.348L131.809,148.697
		L131.809,148.697z M131.692,148.465l0.465-0.232c0.581-0.232,0.813-0.465,0.93-0.812s0.116-0.695-0.116-1.16
		c-0.232-0.463-0.581-0.812-0.813-0.812c-0.232-0.115-0.581-0.115-1.046,0.117l-0.697,0.348L131.692,148.465L131.692,148.465z
		 M131.344,152.756l-0.116-0.232l0.813-0.463l-2.789-5.568l-0.812,0.463l-0.233-0.23l3.021-1.508c0.813-0.35,1.394-0.58,1.859-0.465
		c0.465,0,0.813,0.348,1.045,0.812c0.117,0.348,0.233,0.695,0,1.043c-0.115,0.348-0.464,0.697-0.929,1.16v0.117
		c0.697-0.232,1.162-0.348,1.626-0.232c0.465,0.115,0.813,0.348,1.046,0.812c0.232,0.463,0.232,1.043,0,1.508
		c-0.349,0.463-0.812,0.928-1.626,1.275L131.344,152.756L131.344,152.756z"/>
	<path fill-rule="evenodd" clip-rule="evenodd" d="M137.037,146.955c0.465,0.812,0.93,1.277,1.278,1.393
		c0.465,0.232,0.93,0.232,1.395-0.115c0.465-0.232,0.813-0.58,0.813-1.045c0-0.463-0.116-1.043-0.581-1.855l-0.813-1.393
		c-0.349-0.811-0.813-1.275-1.162-1.508c-0.465-0.232-0.93-0.115-1.395,0.115c-0.581,0.35-0.813,0.697-0.813,1.16
		c-0.116,0.465,0.116,1.045,0.466,1.74L137.037,146.955L137.037,146.955z M135.41,146.955c-0.464-0.928-0.581-1.738-0.464-2.666
		c0.231-0.812,0.696-1.51,1.51-1.973c0.697-0.35,1.511-0.465,2.324-0.117c0.93,0.232,1.511,0.812,2.092,1.74
		c0.464,0.928,0.581,1.74,0.349,2.668c-0.116,0.812-0.581,1.51-1.395,1.857c-0.813,0.463-1.627,0.58-2.44,0.232
		C136.572,148.348,135.875,147.768,135.41,146.955L135.41,146.955z"/>
	<path fill-rule="evenodd" clip-rule="evenodd" d="M142.847,142.316l0.466-0.232c0.464-0.232,0.812-0.58,0.929-0.812
		c0.117-0.348,0-0.695-0.232-1.16c-0.232-0.463-0.581-0.695-0.813-0.812c-0.232,0-0.58,0-1.045,0.35l-0.697,0.348L142.847,142.316
		L142.847,142.316z M145.52,145.1l-2.789,1.625l-0.115-0.232l0.812-0.465l-3.021-5.336l-0.93,0.465l-0.116-0.232l2.904-1.625
		c0.697-0.463,1.395-0.695,1.743-0.695c0.465,0,0.813,0.348,1.162,0.812c0.232,0.348,0.232,0.695,0.116,1.16
		c-0.232,0.348-0.581,0.695-1.162,1.16l0.116,0.115c0.581-0.232,1.162-0.232,1.511-0.115c0.465,0.115,0.813,0.463,1.046,1.043
		l0.232,0.35c0.232,0.23,0.349,0.348,0.464,0.463c0.116,0,0.35,0,0.582-0.115c0,0,0-0.117,0.116-0.117c0,0,0-0.115,0.116-0.115
		l0.116,0.232c-0.116,0.115-0.232,0.23-0.232,0.23c-0.116,0.117-0.116,0.117-0.232,0.117c-0.581,0.348-1.047,0.465-1.395,0.465
		c-0.349-0.117-0.581-0.35-0.93-0.812l-0.349-0.58c-0.349-0.465-0.581-0.697-0.929-0.812c-0.35,0-0.814,0.115-1.396,0.463
		l1.627,2.785l0.813-0.465L145.52,145.1L145.52,145.1z"/>
	<path fill-rule="evenodd" clip-rule="evenodd" d="M148.541,140.576l1.626-1.16l-2.323-1.625h-0.116L148.541,140.576
		L148.541,140.576z M151.214,141.504l-0.117-0.117l0.813-0.578l-1.511-1.16l-1.858,1.275l0.464,1.74l0.93-0.58l0.116,0.232
		l-1.742,1.16l-0.116-0.117l0.581-0.463l-1.743-6.846l0.232-0.23l5.693,4.176l0.697-0.465l0.116,0.232L151.214,141.504
		L151.214,141.504z"/>
	<path fill-rule="evenodd" clip-rule="evenodd" d="M153.886,130.947l1.395,1.508l-0.232,0.232c-0.581-0.465-1.046-0.812-1.395-0.812
		s-0.697,0.117-1.162,0.465l-0.116,0.115h-0.116l4.067,4.873l0.813-0.697l0.115,0.117l-2.672,2.32l-0.116-0.232l0.813-0.695
		l-3.951-4.758l-0.349,0.232c-0.349,0.232-0.581,0.695-0.581,1.045c0,0.348,0.116,0.811,0.581,1.508l-0.232,0.115l-1.278-1.623
		L153.886,130.947L153.886,130.947z"/>
	<path fill-rule="evenodd" clip-rule="evenodd" d="M157.604,133.035c0.58,0.58,1.161,0.812,1.626,0.928
		c0.465,0,0.93-0.115,1.278-0.58c0.349-0.463,0.465-0.928,0.465-1.275c-0.116-0.465-0.581-1.043-1.162-1.623l-1.278-1.045
		c-0.581-0.58-1.161-0.928-1.626-0.928c-0.466-0.117-0.814,0.115-1.279,0.463c-0.348,0.465-0.465,0.928-0.348,1.393
		c0,0.348,0.465,0.928,1.046,1.508L157.604,133.035L157.604,133.035z M155.977,133.5c-0.696-0.697-1.161-1.508-1.277-2.32
		c-0.116-0.928,0.116-1.74,0.813-2.32c0.58-0.695,1.277-1.045,2.207-1.045c0.813,0.117,1.627,0.465,2.44,1.045
		c0.697,0.695,1.162,1.508,1.277,2.436c0.117,0.812-0.115,1.625-0.696,2.205c-0.697,0.695-1.395,1.043-2.324,1.043
		C157.604,134.543,156.79,134.195,155.977,133.5L155.977,133.5z"/>
	<path fill-rule="evenodd" clip-rule="evenodd" d="M161.09,126.887l0.348-0.463c0.35-0.465,0.465-0.812,0.465-1.16
		c-0.115-0.348-0.231-0.58-0.696-0.928c-0.465-0.232-0.813-0.348-1.046-0.348s-0.581,0.23-0.813,0.695l-0.465,0.58L161.09,126.887
		L161.09,126.887z M164.691,128.164l-1.858,2.783l-0.116-0.232l0.465-0.812l-4.997-3.479l-0.58,0.812l-0.232-0.232l1.858-2.668
		c0.581-0.697,0.93-1.16,1.395-1.393c0.465-0.117,0.812,0,1.277,0.232c0.35,0.23,0.582,0.58,0.582,1.043
		c0,0.348-0.116,0.928-0.465,1.625h0.116c0.465-0.465,0.929-0.697,1.394-0.812c0.35,0,0.813,0.115,1.395,0.465l0.349,0.23
		c0.233,0.232,0.465,0.35,0.581,0.232c0.116,0,0.35-0.115,0.465-0.232c0-0.115,0-0.115,0-0.23c0.116,0,0.116,0,0.116-0.117
		l0.232,0.117c-0.116,0.23-0.116,0.23-0.116,0.348c-0.116,0.115-0.116,0.115-0.116,0.232c-0.348,0.463-0.813,0.811-1.162,0.928
		c-0.232,0.115-0.697,0-1.162-0.35l-0.581-0.348c-0.465-0.23-0.812-0.348-1.161-0.23c-0.232,0-0.581,0.348-1.046,0.928l2.672,1.855
		l0.581-0.812L164.691,128.164L164.691,128.164z"/>
	<polygon fill-rule="evenodd" clip-rule="evenodd" points="168.294,120.738 168.526,120.855 167.132,123.988 166.899,123.871 
		167.364,122.943 164.808,121.783 160.857,122.363 160.509,123.059 160.276,122.943 161.555,119.928 161.787,120.043 
		161.438,120.971 164.691,120.623 164.691,120.508 162.717,117.955 162.368,118.883 162.136,118.768 162.949,116.795 
		163.182,116.91 162.949,117.607 165.156,120.508 167.829,121.783 168.294,120.738 	"/>
</g>
</svg>
