<?xml version="1.0" encoding="utf-8"?>
<!-- Generator: Adobe Illustrator 22.0.1, SVG Export Plug-In . SVG Version: 6.00 Build 0)  -->
<svg version="1.1" id="Layer_1" xmlns="http://www.w3.org/2000/svg" xmlns:xlink="http://www.w3.org/1999/xlink" x="0px" y="0px"
	 width="250.1px" height="41.85px" viewBox="0 0 250.1 41.85" enable-background="new 0 0 250.1 41.85" xml:space="preserve">
<g>
	<rect x="1.73" y="0.01" fill="#FFFFFF" width="34.19" height="34.19"/>
	<path fill="#1E59AE" d="M35.92,0.01v17.53H18.95V0.01H35.92z M15.88,21.82c-1.12-0.07-1.72-0.78-1.79-2.1V0.01h-0.76v19.73
		c0.09,1.72,1,2.75,2.53,2.84h15.28l-4.83,5l-11.79,0c-3.04-0.36-6.22-2.93-6.14-6.98V0.01H7.6V20.6c-0.09,4.49,3.45,7.34,6.86,7.75
		h11.09l-4.59,4.75h-6.68C9.71,32.93,3.19,29.44,2.99,21.13V0.01H0.05v37.3h35.87V17.62l-4.05,4.19L15.88,21.82z"/>
	<path fill="#1E59AE" d="M45.86,17.2V0.81h3.34v13.61h8.3v2.78H45.86z M61.17,8.88L58.3,8.37c0.32-1.16,0.88-2.01,1.67-2.57
		c0.79-0.56,1.96-0.83,3.52-0.83c1.41,0,2.46,0.17,3.16,0.5c0.69,0.33,1.18,0.76,1.46,1.27c0.28,0.51,0.42,1.46,0.42,2.84l-0.03,3.7
		c0,1.05,0.05,1.83,0.15,2.33c0.1,0.5,0.29,1.04,0.57,1.61h-3.13c-0.08-0.21-0.18-0.52-0.3-0.94c-0.05-0.19-0.09-0.31-0.11-0.37
		c-0.54,0.53-1.12,0.92-1.74,1.18c-0.62,0.26-1.27,0.39-1.97,0.39c-1.23,0-2.2-0.33-2.91-1c-0.71-0.67-1.07-1.51-1.07-2.54
		c0-0.68,0.16-1.28,0.48-1.81c0.32-0.53,0.78-0.94,1.36-1.22c0.58-0.28,1.42-0.53,2.52-0.74c1.48-0.28,2.51-0.54,3.08-0.78V9.08
		c0-0.61-0.15-1.04-0.45-1.3c-0.3-0.26-0.87-0.39-1.7-0.39c-0.56,0-1,0.11-1.32,0.33C61.62,7.94,61.37,8.33,61.17,8.88z
		 M65.41,11.45c-0.41,0.14-1.05,0.3-1.93,0.48c-0.88,0.19-1.45,0.37-1.73,0.55c-0.41,0.29-0.62,0.67-0.62,1.12
		c0,0.44,0.16,0.83,0.5,1.15s0.75,0.48,1.26,0.48c0.57,0,1.12-0.19,1.63-0.56c0.38-0.29,0.63-0.64,0.76-1.05
		c0.08-0.27,0.12-0.78,0.12-1.54V11.45z M72.84,17.2L69.05,5.23h3.08l2.24,7.85l2.06-7.85h3.05l1.99,7.85l2.29-7.85h3.12L83.05,17.2
		h-3.04l-2.06-7.7l-2.03,7.7H72.84z M90.56,17.2h-3.17V5.23h2.94v1.7c0.5-0.8,0.96-1.33,1.36-1.59c0.4-0.26,0.86-0.38,1.37-0.38
		c0.72,0,1.42,0.2,2.09,0.6l-0.98,2.76c-0.53-0.35-1.03-0.52-1.49-0.52c-0.44,0-0.82,0.12-1.13,0.37C91.24,8.41,91,8.85,90.82,9.49
		c-0.18,0.64-0.26,1.98-0.26,4.01V17.2z M102.4,13.39l3.16,0.53c-0.41,1.16-1.05,2.04-1.92,2.64c-0.87,0.6-1.97,0.91-3.29,0.91
		c-2.08,0-3.62-0.68-4.62-2.04c-0.79-1.09-1.18-2.46-1.18-4.13c0-1.98,0.52-3.54,1.56-4.66c1.04-1.12,2.35-1.69,3.93-1.69
		c1.78,0,3.19,0.59,4.22,1.76s1.52,2.98,1.48,5.41h-7.94c0.02,0.94,0.28,1.67,0.77,2.19c0.49,0.52,1.1,0.78,1.83,0.78
		c0.5,0,0.91-0.14,1.25-0.41C101.97,14.43,102.23,13.99,102.4,13.39z M102.58,10.19c-0.02-0.92-0.26-1.61-0.71-2.09
		s-1-0.72-1.65-0.72c-0.69,0-1.26,0.25-1.71,0.76c-0.45,0.5-0.67,1.19-0.67,2.05H102.58z M118.16,17.2h-3.17v-6.11
		c0-1.29-0.07-2.13-0.2-2.51c-0.14-0.38-0.36-0.67-0.66-0.89c-0.3-0.21-0.67-0.32-1.1-0.32c-0.55,0-1.04,0.15-1.48,0.45
		c-0.44,0.3-0.73,0.7-0.9,1.19c-0.16,0.5-0.24,1.41-0.24,2.75v5.42h-3.17V5.23h2.94v1.76c1.04-1.35,2.36-2.03,3.94-2.03
		c0.7,0,1.34,0.13,1.92,0.38c0.58,0.25,1.02,0.57,1.31,0.96c0.3,0.39,0.5,0.83,0.62,1.33c0.12,0.5,0.17,1.21,0.17,2.13V17.2z
		 M130.77,8.77l-3.12,0.56c-0.11-0.62-0.34-1.09-0.72-1.41c-0.37-0.32-0.85-0.47-1.45-0.47c-0.79,0-1.42,0.27-1.89,0.82
		c-0.47,0.55-0.7,1.46-0.7,2.73c0,1.42,0.24,2.42,0.72,3.01c0.48,0.59,1.12,0.88,1.92,0.88c0.6,0,1.09-0.17,1.48-0.51
		c0.38-0.34,0.65-0.93,0.81-1.76l3.11,0.53c-0.32,1.43-0.94,2.51-1.86,3.24c-0.92,0.73-2.15,1.09-3.69,1.09
		c-1.75,0-3.15-0.55-4.19-1.66c-1.04-1.1-1.56-2.63-1.56-4.59c0-1.98,0.52-3.52,1.57-4.62c1.04-1.1,2.46-1.65,4.24-1.65
		c1.46,0,2.62,0.31,3.48,0.94S130.4,7.49,130.77,8.77z M139.07,13.39l3.16,0.53c-0.41,1.16-1.05,2.04-1.92,2.64
		c-0.87,0.6-1.97,0.91-3.29,0.91c-2.08,0-3.62-0.68-4.62-2.04c-0.79-1.09-1.18-2.46-1.18-4.13c0-1.98,0.52-3.54,1.56-4.66
		c1.04-1.12,2.35-1.69,3.93-1.69c1.78,0,3.19,0.59,4.22,1.76s1.52,2.98,1.48,5.41h-7.94c0.02,0.94,0.28,1.67,0.77,2.19
		c0.49,0.52,1.1,0.78,1.83,0.78c0.5,0,0.91-0.14,1.25-0.41C138.64,14.43,138.89,13.99,139.07,13.39z M139.25,10.19
		c-0.02-0.92-0.26-1.61-0.71-2.09s-1-0.72-1.65-0.72c-0.69,0-1.26,0.25-1.71,0.76c-0.45,0.5-0.67,1.19-0.67,2.05H139.25z
		 M149.42,17.2V0.81h3.34v13.61h8.3v2.78H149.42z M162.37,3.61V0.68h3.17v2.93H162.37z M162.37,17.2V5.23h3.17V17.2H162.37z
		 M171.04,17.2l-4.82-11.97h3.33l2.25,6.11l0.65,2.04c0.17-0.52,0.28-0.86,0.33-1.03c0.11-0.34,0.22-0.68,0.34-1.01l2.28-6.11h3.26
		l-4.76,11.97H171.04z M186.48,13.39l3.16,0.53c-0.41,1.16-1.05,2.04-1.92,2.64c-0.87,0.6-1.97,0.91-3.29,0.91
		c-2.08,0-3.62-0.68-4.62-2.04c-0.79-1.09-1.18-2.46-1.18-4.13c0-1.98,0.52-3.54,1.56-4.66c1.04-1.12,2.35-1.69,3.93-1.69
		c1.78,0,3.19,0.59,4.22,1.76s1.52,2.98,1.48,5.41h-7.94c0.02,0.94,0.28,1.67,0.77,2.19c0.49,0.52,1.1,0.78,1.83,0.78
		c0.5,0,0.91-0.14,1.25-0.41C186.05,14.43,186.31,13.99,186.48,13.39z M186.66,10.19c-0.02-0.92-0.26-1.61-0.71-2.09
		s-1-0.72-1.65-0.72c-0.69,0-1.26,0.25-1.71,0.76c-0.45,0.5-0.67,1.19-0.67,2.05H186.66z M194.38,17.2h-3.17V5.23h2.94v1.7
		c0.5-0.8,0.96-1.33,1.36-1.59c0.4-0.26,0.86-0.38,1.37-0.38c0.72,0,1.42,0.2,2.09,0.6l-0.98,2.76c-0.53-0.35-1.03-0.52-1.49-0.52
		c-0.44,0-0.82,0.12-1.13,0.37c-0.31,0.24-0.55,0.69-0.73,1.32c-0.18,0.64-0.26,1.98-0.26,4.01V17.2z M199.06,5.23h2.92v1.63
		c1.04-1.27,2.29-1.91,3.73-1.91c0.77,0,1.43,0.16,2,0.47c0.56,0.32,1.03,0.79,1.39,1.43c0.53-0.64,1.09-1.12,1.7-1.43
		c0.61-0.32,1.26-0.47,1.95-0.47c0.88,0,1.62,0.18,2.23,0.54c0.61,0.36,1.06,0.88,1.36,1.57c0.22,0.51,0.33,1.34,0.33,2.48v7.65
		h-3.17v-6.84c0-1.19-0.11-1.95-0.33-2.3c-0.29-0.45-0.74-0.68-1.35-0.68c-0.44,0-0.86,0.14-1.25,0.41
		c-0.39,0.27-0.67,0.67-0.85,1.19c-0.17,0.52-0.26,1.35-0.26,2.47v5.75h-3.17v-6.56c0-1.16-0.06-1.92-0.17-2.25
		s-0.29-0.59-0.52-0.76c-0.24-0.17-0.56-0.25-0.96-0.25c-0.49,0-0.93,0.13-1.32,0.39s-0.67,0.64-0.84,1.14
		c-0.17,0.5-0.25,1.32-0.25,2.47v5.82h-3.17V5.23z M218.05,11.05c0-1.05,0.26-2.07,0.78-3.05c0.52-0.98,1.25-1.74,2.2-2.25
		c0.95-0.52,2.01-0.78,3.18-0.78c1.81,0,3.3,0.59,4.45,1.76c1.16,1.18,1.74,2.66,1.74,4.46c0,1.81-0.58,3.31-1.75,4.5
		c-1.17,1.19-2.64,1.79-4.41,1.79c-1.1,0-2.14-0.25-3.14-0.74s-1.75-1.22-2.27-2.18C218.31,13.59,218.05,12.42,218.05,11.05z
		 M221.29,11.22c0,1.19,0.28,2.1,0.85,2.73s1.26,0.95,2.09,0.95c0.83,0,1.52-0.32,2.08-0.95c0.56-0.63,0.84-1.55,0.84-2.75
		c0-1.17-0.28-2.07-0.84-2.71c-0.56-0.63-1.25-0.95-2.08-0.95c-0.83,0-1.52,0.32-2.09,0.95S221.29,10.03,221.29,11.22z M234.88,17.2
		h-3.17V5.23h2.94v1.7c0.5-0.8,0.96-1.33,1.36-1.59c0.4-0.26,0.86-0.38,1.37-0.38c0.72,0,1.42,0.2,2.09,0.6l-0.98,2.76
		c-0.53-0.35-1.03-0.52-1.49-0.52c-0.44,0-0.82,0.12-1.13,0.37c-0.31,0.24-0.55,0.69-0.73,1.32c-0.18,0.64-0.26,1.98-0.26,4.01V17.2
		z M246.72,13.39l3.16,0.53c-0.41,1.16-1.05,2.04-1.92,2.64c-0.87,0.6-1.97,0.91-3.29,0.91c-2.08,0-3.62-0.68-4.62-2.04
		c-0.79-1.09-1.18-2.46-1.18-4.13c0-1.98,0.52-3.54,1.56-4.66c1.04-1.12,2.35-1.69,3.93-1.69c1.78,0,3.19,0.59,4.22,1.76
		s1.52,2.98,1.48,5.41h-7.94c0.02,0.94,0.28,1.67,0.77,2.19c0.49,0.52,1.1,0.78,1.83,0.78c0.5,0,0.91-0.14,1.25-0.41
		C246.29,14.43,246.55,13.99,246.72,13.39z M246.9,10.19c-0.02-0.92-0.26-1.61-0.71-2.09s-1-0.72-1.65-0.72
		c-0.69,0-1.26,0.25-1.71,0.76c-0.45,0.5-0.67,1.19-0.67,2.05H246.9z M45.8,36.99V20.46h3.25l6.76,11.04V20.46h3.1v16.53h-3.35
		L48.9,26.21v10.78H45.8z M63.74,28.67l-2.87-0.52c0.32-1.16,0.88-2.01,1.67-2.57c0.79-0.56,1.96-0.83,3.52-0.83
		c1.41,0,2.46,0.17,3.16,0.5c0.69,0.33,1.18,0.76,1.46,1.27c0.28,0.51,0.42,1.46,0.42,2.84l-0.03,3.7c0,1.05,0.05,1.83,0.15,2.33
		c0.1,0.5,0.29,1.04,0.57,1.61h-3.13c-0.08-0.21-0.18-0.52-0.3-0.94c-0.05-0.19-0.09-0.31-0.11-0.37c-0.54,0.53-1.12,0.92-1.74,1.18
		c-0.62,0.26-1.27,0.39-1.97,0.39c-1.23,0-2.2-0.33-2.91-1c-0.71-0.67-1.07-1.51-1.07-2.54c0-0.68,0.16-1.28,0.48-1.81
		c0.32-0.53,0.78-0.94,1.36-1.22c0.58-0.28,1.42-0.53,2.52-0.74c1.48-0.28,2.51-0.54,3.08-0.78v-0.32c0-0.61-0.15-1.04-0.45-1.3
		c-0.3-0.26-0.87-0.39-1.7-0.39c-0.56,0-1,0.11-1.32,0.33C64.19,27.72,63.94,28.11,63.74,28.67z M67.98,31.24
		c-0.41,0.14-1.05,0.3-1.93,0.48c-0.88,0.19-1.45,0.37-1.73,0.55c-0.41,0.29-0.62,0.67-0.62,1.12c0,0.44,0.16,0.83,0.5,1.15
		c0.33,0.32,0.75,0.48,1.26,0.48c0.57,0,1.12-0.19,1.63-0.56c0.38-0.29,0.63-0.64,0.76-1.05c0.08-0.27,0.12-0.78,0.12-1.54V31.24z
		 M78.67,25.02v2.53H76.5v4.82c0,0.98,0.02,1.55,0.06,1.71c0.04,0.16,0.14,0.3,0.28,0.4c0.15,0.11,0.32,0.16,0.54,0.16
		c0.29,0,0.72-0.1,1.27-0.3l0.27,2.46c-0.74,0.32-1.57,0.47-2.5,0.47c-0.57,0-1.09-0.1-1.54-0.29c-0.46-0.19-0.79-0.44-1.01-0.74
		c-0.21-0.3-0.36-0.72-0.44-1.23c-0.07-0.37-0.1-1.11-0.1-2.23v-5.22h-1.45v-2.53h1.45v-2.38l3.18-1.85v4.23H78.67z M79.83,23.39
		v-2.93h3.17v2.93H79.83z M79.83,36.99V25.02h3.17v11.97H79.83z M84.47,30.83c0-1.05,0.26-2.07,0.78-3.05
		c0.52-0.98,1.25-1.74,2.2-2.25c0.95-0.52,2.01-0.78,3.18-0.78c1.81,0,3.3,0.59,4.45,1.76c1.16,1.18,1.74,2.66,1.74,4.46
		c0,1.81-0.58,3.31-1.75,4.5c-1.17,1.19-2.64,1.79-4.41,1.79c-1.1,0-2.14-0.25-3.14-0.74c-1-0.5-1.75-1.22-2.27-2.18
		C84.73,33.37,84.47,32.21,84.47,30.83z M87.71,31c0,1.19,0.28,2.1,0.85,2.73c0.56,0.63,1.26,0.95,2.09,0.95s1.52-0.32,2.08-0.95
		c0.56-0.63,0.84-1.55,0.84-2.75c0-1.17-0.28-2.07-0.84-2.71c-0.56-0.63-1.25-0.95-2.08-0.95s-1.52,0.32-2.09,0.95
		C88,28.9,87.71,29.81,87.71,31z M109.15,36.99h-3.17v-6.11c0-1.29-0.07-2.13-0.2-2.51c-0.14-0.38-0.36-0.67-0.66-0.89
		s-0.67-0.32-1.1-0.32c-0.55,0-1.04,0.15-1.48,0.45c-0.44,0.3-0.73,0.7-0.9,1.19c-0.16,0.5-0.24,1.41-0.24,2.75v5.42h-3.17V25.02
		h2.94v1.76c1.04-1.35,2.36-2.03,3.94-2.03c0.7,0,1.34,0.13,1.92,0.38c0.58,0.25,1.02,0.57,1.31,0.96s0.5,0.83,0.62,1.33
		c0.12,0.5,0.17,1.21,0.17,2.13V36.99z M113.69,28.67l-2.87-0.52c0.32-1.16,0.88-2.01,1.67-2.57c0.79-0.56,1.96-0.83,3.52-0.83
		c1.41,0,2.46,0.17,3.16,0.5c0.69,0.33,1.18,0.76,1.46,1.27c0.28,0.51,0.42,1.46,0.42,2.84l-0.03,3.7c0,1.05,0.05,1.83,0.15,2.33
		c0.1,0.5,0.29,1.04,0.57,1.61h-3.13c-0.08-0.21-0.18-0.52-0.3-0.94c-0.05-0.19-0.09-0.31-0.11-0.37c-0.54,0.53-1.12,0.92-1.74,1.18
		c-0.62,0.26-1.27,0.39-1.97,0.39c-1.23,0-2.2-0.33-2.91-1c-0.71-0.67-1.07-1.51-1.07-2.54c0-0.68,0.16-1.28,0.48-1.81
		c0.32-0.53,0.78-0.94,1.36-1.22c0.58-0.28,1.42-0.53,2.52-0.74c1.48-0.28,2.51-0.54,3.08-0.78v-0.32c0-0.61-0.15-1.04-0.45-1.3
		c-0.3-0.26-0.87-0.39-1.7-0.39c-0.56,0-1,0.11-1.32,0.33C114.14,27.72,113.89,28.11,113.69,28.67z M117.93,31.24
		c-0.41,0.14-1.05,0.3-1.93,0.48c-0.88,0.19-1.45,0.37-1.73,0.55c-0.41,0.29-0.62,0.67-0.62,1.12c0,0.44,0.16,0.83,0.5,1.15
		c0.33,0.32,0.75,0.48,1.26,0.48c0.57,0,1.12-0.19,1.63-0.56c0.38-0.29,0.63-0.64,0.76-1.05c0.08-0.27,0.12-0.78,0.12-1.54V31.24z
		 M123.13,36.99V20.46h3.17v16.53H123.13z M133.99,36.99V20.6h3.34V34.2h8.3v2.78H133.99z M149.31,28.67l-2.87-0.52
		c0.32-1.16,0.88-2.01,1.67-2.57c0.79-0.56,1.96-0.83,3.52-0.83c1.41,0,2.46,0.17,3.16,0.5c0.69,0.33,1.18,0.76,1.46,1.27
		c0.28,0.51,0.42,1.46,0.42,2.84l-0.03,3.7c0,1.05,0.05,1.83,0.15,2.33c0.1,0.5,0.29,1.04,0.57,1.61h-3.13
		c-0.08-0.21-0.18-0.52-0.3-0.94c-0.05-0.19-0.09-0.31-0.11-0.37c-0.54,0.53-1.12,0.92-1.74,1.18c-0.62,0.26-1.27,0.39-1.97,0.39
		c-1.23,0-2.2-0.33-2.91-1c-0.71-0.67-1.07-1.51-1.07-2.54c0-0.68,0.16-1.28,0.48-1.81c0.32-0.53,0.78-0.94,1.36-1.22
		c0.58-0.28,1.42-0.53,2.52-0.74c1.48-0.28,2.51-0.54,3.08-0.78v-0.32c0-0.61-0.15-1.04-0.45-1.3c-0.3-0.26-0.87-0.39-1.7-0.39
		c-0.56,0-1,0.11-1.32,0.33C149.76,27.72,149.5,28.11,149.31,28.67z M153.55,31.24c-0.41,0.14-1.05,0.3-1.93,0.48
		c-0.88,0.19-1.45,0.37-1.73,0.55c-0.41,0.29-0.62,0.67-0.62,1.12c0,0.44,0.16,0.83,0.5,1.15c0.33,0.32,0.75,0.48,1.26,0.48
		c0.57,0,1.12-0.19,1.63-0.56c0.38-0.29,0.63-0.64,0.76-1.05c0.08-0.27,0.12-0.78,0.12-1.54V31.24z M158.61,36.99V20.46h3.17v5.95
		c0.98-1.11,2.13-1.67,3.47-1.67c1.46,0,2.66,0.53,3.62,1.58c0.95,1.06,1.43,2.57,1.43,4.55c0,2.04-0.49,3.62-1.46,4.72
		s-2.15,1.66-3.55,1.66c-0.68,0-1.36-0.17-2.02-0.51c-0.67-0.34-1.24-0.85-1.72-1.52v1.76H158.61z M161.75,30.74
		c0,1.24,0.2,2.16,0.59,2.75c0.55,0.84,1.28,1.26,2.19,1.26c0.7,0,1.29-0.3,1.79-0.9c0.49-0.6,0.74-1.54,0.74-2.82
		c0-1.37-0.25-2.35-0.74-2.96c-0.5-0.6-1.13-0.91-1.91-0.91c-0.76,0-1.39,0.3-1.89,0.89C162,28.64,161.75,29.54,161.75,30.74z
		 M171.07,30.83c0-1.05,0.26-2.07,0.78-3.05c0.52-0.98,1.25-1.74,2.2-2.25c0.95-0.52,2.01-0.78,3.18-0.78c1.81,0,3.3,0.59,4.45,1.76
		c1.16,1.18,1.74,2.66,1.74,4.46c0,1.81-0.58,3.31-1.75,4.5c-1.17,1.19-2.64,1.79-4.41,1.79c-1.1,0-2.14-0.25-3.14-0.74
		c-1-0.5-1.75-1.22-2.27-2.18C171.33,33.37,171.07,32.21,171.07,30.83z M174.32,31c0,1.19,0.28,2.1,0.85,2.73s1.26,0.95,2.09,0.95
		c0.83,0,1.52-0.32,2.08-0.95c0.56-0.63,0.84-1.55,0.84-2.75c0-1.17-0.28-2.07-0.84-2.71c-0.56-0.63-1.25-0.95-2.08-0.95
		c-0.83,0-1.52,0.32-2.09,0.95S174.32,29.81,174.32,31z M187.9,36.99h-3.17V25.02h2.94v1.7c0.5-0.8,0.96-1.33,1.36-1.59
		c0.4-0.26,0.86-0.38,1.37-0.38c0.72,0,1.42,0.2,2.09,0.6l-0.98,2.76c-0.53-0.35-1.03-0.52-1.49-0.52c-0.44,0-0.82,0.12-1.13,0.37
		s-0.55,0.69-0.73,1.32c-0.18,0.64-0.26,1.98-0.26,4.01V36.99z M195.18,28.67l-2.87-0.52c0.32-1.16,0.88-2.01,1.67-2.57
		c0.79-0.56,1.96-0.83,3.52-0.83c1.41,0,2.46,0.17,3.16,0.5c0.69,0.33,1.18,0.76,1.46,1.27c0.28,0.51,0.42,1.46,0.42,2.84l-0.03,3.7
		c0,1.05,0.05,1.83,0.15,2.33c0.1,0.5,0.29,1.04,0.57,1.61h-3.13c-0.08-0.21-0.18-0.52-0.3-0.94c-0.05-0.19-0.09-0.31-0.11-0.37
		c-0.54,0.53-1.12,0.92-1.74,1.18c-0.62,0.26-1.27,0.39-1.97,0.39c-1.23,0-2.2-0.33-2.91-1c-0.71-0.67-1.07-1.51-1.07-2.54
		c0-0.68,0.16-1.28,0.48-1.81c0.32-0.53,0.78-0.94,1.36-1.22c0.58-0.28,1.42-0.53,2.52-0.74c1.48-0.28,2.51-0.54,3.08-0.78v-0.32
		c0-0.61-0.15-1.04-0.45-1.3c-0.3-0.26-0.87-0.39-1.7-0.39c-0.56,0-1,0.11-1.32,0.33C195.63,27.72,195.37,28.11,195.18,28.67z
		 M199.42,31.24c-0.41,0.14-1.05,0.3-1.93,0.48c-0.88,0.19-1.45,0.37-1.73,0.55c-0.41,0.29-0.62,0.67-0.62,1.12
		c0,0.44,0.16,0.83,0.5,1.15c0.33,0.32,0.75,0.48,1.26,0.48c0.57,0,1.12-0.19,1.63-0.56c0.38-0.29,0.63-0.64,0.76-1.05
		c0.08-0.27,0.12-0.78,0.12-1.54V31.24z M210.1,25.02v2.53h-2.16v4.82c0,0.98,0.02,1.55,0.06,1.71c0.04,0.16,0.14,0.3,0.28,0.4
		c0.15,0.11,0.32,0.16,0.54,0.16c0.29,0,0.72-0.1,1.27-0.3l0.27,2.46c-0.74,0.32-1.57,0.47-2.5,0.47c-0.57,0-1.09-0.1-1.54-0.29
		c-0.46-0.19-0.79-0.44-1.01-0.74c-0.21-0.3-0.36-0.72-0.44-1.23c-0.07-0.37-0.1-1.11-0.1-2.23v-5.22h-1.45v-2.53h1.45v-2.38
		l3.18-1.85v4.23H210.1z M210.53,30.83c0-1.05,0.26-2.07,0.78-3.05c0.52-0.98,1.25-1.74,2.2-2.25c0.95-0.52,2.01-0.78,3.18-0.78
		c1.81,0,3.3,0.59,4.45,1.76c1.16,1.18,1.74,2.66,1.74,4.46c0,1.81-0.58,3.31-1.75,4.5c-1.17,1.19-2.64,1.79-4.41,1.79
		c-1.1,0-2.14-0.25-3.14-0.74c-1-0.5-1.75-1.22-2.27-2.18C210.79,33.37,210.53,32.21,210.53,30.83z M213.77,31
		c0,1.19,0.28,2.1,0.85,2.73c0.56,0.63,1.26,0.95,2.09,0.95c0.83,0,1.52-0.32,2.08-0.95c0.56-0.63,0.84-1.55,0.84-2.75
		c0-1.17-0.28-2.07-0.84-2.71c-0.56-0.63-1.25-0.95-2.08-0.95c-0.83,0-1.52,0.32-2.09,0.95C214.06,28.9,213.77,29.81,213.77,31z
		 M227.36,36.99h-3.17V25.02h2.94v1.7c0.5-0.8,0.96-1.33,1.36-1.59c0.4-0.26,0.86-0.38,1.37-0.38c0.72,0,1.42,0.2,2.09,0.6
		l-0.98,2.76c-0.53-0.35-1.03-0.52-1.49-0.52c-0.44,0-0.82,0.12-1.13,0.37s-0.55,0.69-0.73,1.32c-0.18,0.64-0.26,1.98-0.26,4.01
		V36.99z M230.77,25.02h3.37l2.86,8.5l2.8-8.5h3.28l-4.23,11.52l-0.75,2.09c-0.28,0.7-0.54,1.23-0.79,1.6
		c-0.25,0.37-0.54,0.67-0.87,0.9c-0.33,0.23-0.73,0.41-1.21,0.54c-0.48,0.13-1.02,0.19-1.62,0.19c-0.61,0-1.21-0.06-1.79-0.19
		l-0.28-2.48c0.5,0.1,0.94,0.15,1.34,0.15c0.74,0,1.28-0.22,1.63-0.65c0.35-0.43,0.62-0.98,0.81-1.65L230.77,25.02z"/>
</g>
</svg>
